<svg width="25" height="25" viewBox="0 0 25 25" fill="none" xmlns="http://www.w3.org/2000/svg">
<g clip-path="url(#clip0_194_85)">
<path d="M1.33216 22.1509H1.33274C3.44552 22.2617 7.83918 22.6663 10.9692 24.2095V12.3848C9.63724 11.5816 7.86146 11.0459 6.0847 10.6961C4.29986 10.3448 2.57341 10.1923 1.41268 10.1262L1.33216 22.1509ZM1.33216 22.1509C0.984006 22.1329 0.75 21.8606 0.75 21.5791V10.7002C0.75 10.3947 1.02215 10.1042 1.4125 10.1262L1.33216 22.1509ZM23.6678 22.1524H23.6677C21.5547 22.2633 17.1613 22.6681 14.0317 24.211V12.3845C15.3634 11.5815 17.139 11.0457 18.9156 10.696C20.7005 10.3446 22.427 10.192 23.5873 10.1262C23.9776 10.1041 24.2503 10.3946 24.2505 10.7007V21.5801C24.2505 21.8615 24.0165 22.1341 23.6678 22.1524ZM13.9922 24.3418L14.2847 24.9229L13.9475 24.2529L13.9922 24.3418ZM13.9863 12.4121H13.9864H13.9863ZM12.5 0.75C14.6747 0.75 16.4375 2.51285 16.4375 4.6875C16.4375 6.86215 14.6747 8.625 12.5 8.625C10.3253 8.625 8.5625 6.86215 8.5625 4.6875C8.5625 2.51285 10.3253 0.75 12.5 0.75Z" fill="white" stroke="white" stroke-width="1.5"/>
</g>
<defs>
<clipPath id="clip0_194_85">
<rect width="25" height="25" fill="white"/>
</clipPath>
</defs>
</svg>
