<svg width="23" height="25" viewBox="0 0 23 25" fill="none" xmlns="http://www.w3.org/2000/svg">
<g clip-path="url(#clip0_194_82)">
<path d="M6.12206 6.58143C6.00029 7.00964 5.93258 7.45623 5.93258 7.91816C5.93258 10.8853 8.43924 13.3232 11.5738 13.3232C14.7084 13.3232 17.215 10.8853 17.215 7.91816C17.215 7.45514 17.1484 7.00823 17.0272 6.58056L17.0272 6.58054C16.9232 6.21329 16.7786 5.85935 16.6009 5.52128L16.2992 4.94772L16.9306 4.80147L18.2009 4.50719L18.3137 4.99429L18.2009 4.50719L21.5505 3.73127C21.5506 3.73125 21.5507 3.73123 21.5508 3.7312C21.6745 3.70238 21.7395 3.65125 21.7721 3.61247C21.8056 3.57255 21.8186 3.53014 21.8186 3.49168C21.8186 3.45323 21.8056 3.41082 21.7721 3.3709C21.7395 3.3321 21.6744 3.28093 21.5506 3.25212C21.5505 3.25212 21.5505 3.25211 21.5505 3.25211L12.4169 1.13032C12.4166 1.13027 12.4164 1.13022 12.4162 1.13018C11.8664 1.00421 11.286 1.00421 10.7361 1.13019C10.7359 1.13024 10.7357 1.13028 10.7355 1.13032L1.59297 3.24735C1.59282 3.24739 1.59267 3.24742 1.59251 3.24746C1.47113 3.27592 1.40723 3.3265 1.37488 3.36534C1.3414 3.40553 1.32786 3.44907 1.32786 3.48938C1.32786 3.52968 1.3414 3.57322 1.37488 3.61341C1.40713 3.65213 1.47071 3.7025 1.59131 3.73102L1.77026 3.77134L1.77026 3.77134L1.89616 3.79972L2.28623 3.88763V4.28749V4.55505V6.98165V7.2704L2.03613 7.41472C2.00905 7.43035 1.98327 7.4473 1.95899 7.46538L6.12206 6.58143ZM6.12206 6.58143C6.2267 6.21349 6.37144 5.85859 6.5479 5.51925L6.84546 4.94702L6.21713 4.80147L4.94773 4.50741L4.94772 4.50741L4.32792 4.36384L4.32792 4.36384L3.17644 4.09711L3.05054 4.06795L2.43771 3.92599V4.55505V5.81844V6.98165V7.2704L2.68781 7.41472C2.71489 7.43035 2.74067 7.4473 2.76495 7.46538L6.12206 6.58143ZM3.245 11.8251L2.53651 9.10461L2.53651 9.1046L2.49703 8.95298L2.40527 8.60062L2.71247 8.40514C2.73326 8.39191 2.75321 8.37792 2.77222 8.36327L3.245 11.8251ZM3.245 11.8251C3.24505 11.8253 3.2451 11.8255 3.24515 11.8257C3.24694 11.8329 3.24807 11.84 3.24861 11.8469H1.47533C1.47587 11.84 1.477 11.8329 1.47879 11.8257M3.245 11.8251L1.47879 11.8257M1.47879 11.8257C1.47884 11.8255 1.47889 11.8253 1.47894 11.8251L2.18743 9.10461L2.18743 9.1046L2.22691 8.95298L2.31867 8.60062L2.01147 8.40514C1.99068 8.39191 1.97073 8.37792 1.95172 8.36327L1.47879 11.8257ZM3.01345 7.91816C3.01345 7.74824 2.92831 7.58706 2.76497 7.4654L3.01345 7.91816ZM3.01345 7.91816C3.01345 8.08261 2.93205 8.24004 2.77224 8.36325L3.01345 7.91816ZM1.71049 7.91816C1.71049 8.08261 1.79189 8.24004 1.9517 8.36325L1.71049 7.91816ZM1.71049 7.91816C1.71049 7.74824 1.79563 7.58706 1.95897 7.4654L1.71049 7.91816ZM11.2272 20.0887L11.5738 20.4219L11.9204 20.0887L12.8237 19.2201L14.3364 17.7656C14.3172 17.8965 14.3012 18.0284 14.2886 18.1612L12.1306 20.2363L12.1305 20.2363L11.5738 20.7716L11.0172 20.2363L6.86359 16.2425L6.68816 16.0738L6.44717 16.1078C3.72061 16.4925 1.60403 18.7417 1.60403 21.4998V21.9426C1.60403 22.7813 2.3062 23.4288 3.12962 23.4288H15.6938C15.7481 23.5058 15.8037 23.5819 15.8607 23.657H3.12962C2.11568 23.657 1.32666 22.8708 1.32666 21.9426V21.4998C1.32666 18.5251 3.72392 16.07 6.80757 15.8389L10.324 19.2201L10.324 19.2201L11.2272 20.0887ZM3.67647 3.00181L3.67643 3.97602L6.29063 4.58159L7.22407 4.79781L6.80319 5.60718L6.80319 5.60719C6.43429 6.31663 6.20997 7.09398 6.20997 7.91816C6.20997 10.7958 8.62974 13.095 11.5738 13.095C14.5179 13.095 16.9376 10.7958 16.9376 7.91816C16.9376 7.09187 16.717 6.3155 16.346 5.61019L15.9192 4.79883L16.857 4.58159L19.4621 3.97813L19.4624 3.00399L12.3491 1.35156L12.3475 1.35114L12.3421 1.34991C11.8407 1.23527 11.3114 1.2353 10.8099 1.35001L10.8099 1.34992L10.8035 1.3515L3.67647 3.00181Z" fill="white" stroke="white"/>
<path d="M11 13.4616L14.5 12.5L16 10.5769L17 8.43201L16.5 5.76925V4.80771L19 3.84617L20.5 2.88463C19.5 2.72437 17.4 2.40386 17 2.40386C16.6 2.40386 15.1667 2.08335 14.5 1.92309L12 1.44232L8 1.92309L6 2.40386L4.5 2.88463L3 3.84617H4L6.5 4.32694L7 5.76925L6.5 7.21155V9.13463L8.5 12.0192L11 13.4616Z" fill="white"/>
<path d="M14.5 22.5962C14.5 23.0769 14.5 23.5577 14 23.5577H4L2 22.5962L1.5 21.1539L2.5 18.75L4.5 16.8269L7 16.3462L11.5 20.6731H12L12.5 20.1923L13.5 20.6731L14 21.1539C14.1667 21.4744 14.5 22.2115 14.5 22.5962Z" fill="white"/>
<path d="M20.6764 17.6244L20.6764 17.6244C20.359 17.3192 19.8523 17.3192 19.535 17.6244L16.9088 20.1495L15.8675 19.1482C15.5501 18.8431 15.0434 18.8431 14.7261 19.1482L14.726 19.1483L14.278 19.5792C13.9493 19.8949 13.9495 20.4154 14.2779 20.7311L16.338 22.7121L16.3381 22.7121C16.6554 23.0173 17.1621 23.0173 17.4795 22.7121L21.1246 19.2072C21.4529 18.8916 21.4531 18.3711 21.1244 18.0553L20.6764 17.6244ZM22.1142 19.8504C22.1142 22.165 20.1571 24.0744 17.7012 24.0744C15.2453 24.0744 13.2882 22.165 13.2882 19.8504C13.2882 17.5359 15.2453 15.6263 17.7012 15.6263C20.1571 15.6263 22.1142 17.5359 22.1142 19.8504Z" fill="white" stroke="white"/>
</g>
<defs>
<clipPath id="clip0_194_82">
<rect width="23" height="25" fill="white"/>
</clipPath>
</defs>
</svg>
