<svg width="23" height="26" viewBox="0 0 23 26" fill="none" xmlns="http://www.w3.org/2000/svg">
<path fill-rule="evenodd" clip-rule="evenodd" d="M6.99668 15.9402L10.6706 19.6141L11.5738 20.5174L12.4771 19.6141L15.29 16.8012C15.0053 17.5297 14.8261 18.311 14.7713 19.1263L12.4771 21.4206L11.5738 22.3238L10.6706 21.4206L6.51703 17.267C4.01684 17.6339 2.10403 19.7713 2.10403 22.3598V22.8203C2.10403 23.3863 2.56367 23.8459 3.12962 23.8459H15.9584C16.2483 24.3061 16.5845 24.734 16.9607 25.1233H3.12962C1.8582 25.1233 0.82666 24.0918 0.82666 22.8203V22.3598C0.82666 18.8957 3.56623 16.0889 6.99668 15.9402ZM21.6637 4.38701L18.3137 5.19406L17.0434 5.50011C17.2361 5.88122 17.3941 6.28281 17.5083 6.70201C17.6414 7.19052 17.715 7.70298 17.715 8.23488C17.715 11.6269 14.9659 14.3761 11.5738 14.3761C8.18176 14.3761 5.43258 11.6269 5.43258 8.23488C5.43258 7.70313 5.50759 7.19083 5.64113 6.70245C5.75581 6.28308 5.91366 5.88136 6.10429 5.50011L4.83489 5.19429L4.21509 5.04498L3.06361 4.76758L2.93771 4.73725V6.05117V7.26091C2.9814 7.28713 3.02348 7.31587 3.06361 7.34695C3.33192 7.55478 3.51345 7.8676 3.51345 8.23488C3.51345 8.59487 3.33736 8.90127 3.0775 9.10962C3.04644 9.13452 3.01418 9.15803 2.98089 9.18006L3.02037 9.33774L3.72936 12.1691C3.81091 12.5002 3.6286 12.8408 3.36472 12.8408H1.35922C1.09534 12.8408 0.913022 12.5002 0.994584 12.1691L1.70357 9.33774L1.74305 9.18006C1.70976 9.15803 1.6775 9.13452 1.64644 9.10962C1.38658 8.90127 1.21049 8.59487 1.21049 8.23488C1.21049 7.8676 1.39202 7.55478 1.66033 7.34695C1.70046 7.31587 1.74254 7.28713 1.78623 7.26091V4.73725V4.45898L1.66033 4.42947L1.47917 4.38701C0.610757 4.1759 0.610757 3.08199 1.47917 2.87089L10.6238 0.668679C11.2476 0.519946 11.9049 0.519946 12.5286 0.668679L21.6637 2.87569C22.5369 3.08679 22.5369 4.1759 21.6637 4.38701ZM6.40346 4.25826L3.78926 3.62847L10.9202 1.91122L10.9214 1.91091C11.3495 1.80907 11.8026 1.80904 12.2307 1.91082L12.2323 1.91122L19.3493 3.63066L16.7442 4.25826L15.175 4.63631L15.9035 6.07667C16.2418 6.74553 16.4376 7.47049 16.4376 8.23488C16.4376 10.9214 14.2604 13.0988 11.5738 13.0988C8.88723 13.0988 6.70997 10.9214 6.70997 8.23488C6.70997 7.47428 6.9087 6.74759 7.2468 6.07137L7.96524 4.63451L6.40346 4.25826Z" fill="white"/>
<path d="M22.6142 20.6444C22.6142 23.3578 20.4146 25.5574 17.7012 25.5574C14.9878 25.5574 12.7882 23.3578 12.7882 20.6444C12.7882 17.9311 14.9878 15.7314 17.7012 15.7314C20.4146 15.7314 22.6142 17.9311 22.6142 20.6444ZM17.1329 23.2458L20.778 19.6007C20.9018 19.4769 20.9018 19.2762 20.778 19.1525L20.3298 18.7042C20.206 18.5804 20.0053 18.5804 19.8815 18.7042L16.9088 21.6769L15.5209 20.289C15.3971 20.1652 15.1964 20.1652 15.0726 20.289L14.6244 20.7373C14.5006 20.861 14.5006 21.0617 14.6244 21.1855L16.6846 23.2458C16.8084 23.3696 17.0091 23.3696 17.1329 23.2458V23.2458Z" fill="white"/>
</svg>
