<svg width="25" height="25" viewBox="0 0 25 25" fill="none" xmlns="http://www.w3.org/2000/svg">
<g clip-path="url(#clip0_177_197)">
<path d="M16.2903 4.30702L16.2904 4.30712L20.6925 8.71854C20.6926 8.7186 20.6927 8.71867 20.6927 8.71874C20.8445 8.87102 20.9297 9.07724 20.9297 9.29224C20.9297 9.50723 20.8445 9.71345 20.6927 9.86573C20.6927 9.8658 20.6926 9.86587 20.6925 9.86594L11.6875 18.8898V7.77524L15.1509 4.3077L15.1513 4.30736L15.1534 4.30525C15.1535 4.30514 15.1536 4.30503 15.1537 4.30492C15.3047 4.15466 15.5092 4.07044 15.7222 4.07077C15.9354 4.0711 16.1397 4.15608 16.2903 4.30702ZM6.25 13.25H7V12.5V9.375V8.625H6.25H3.125H2.375V9.375V12.5V13.25H3.125H6.25ZM6.25 7H7V6.25V3.125V2.375H6.25H3.125H2.375V3.125V6.25V7H3.125H6.25ZM10.6573 24.25L18.5281 16.375H23.4375C23.653 16.375 23.8596 16.4606 24.012 16.613C24.1644 16.7654 24.25 16.972 24.25 17.1875V23.4375C24.25 23.653 24.1644 23.8596 24.012 24.012C23.8596 24.1644 23.653 24.25 23.4375 24.25H10.6573ZM8.38702 0.987976C8.5394 1.14035 8.625 1.34701 8.625 1.5625V20.3125C8.625 21.3568 8.21016 22.3583 7.47173 23.0967C6.73331 23.8352 5.73179 24.25 4.6875 24.25C3.64321 24.25 2.64169 23.8352 1.90327 23.0967C1.16484 22.3583 0.75 21.3568 0.75 20.3125V1.5625C0.75 1.34701 0.835602 1.14035 0.987976 0.987976C1.14035 0.835602 1.34701 0.75 1.5625 0.75H7.8125C8.02799 0.75 8.23465 0.835602 8.38702 0.987976ZM3.61976 21.9105C3.93581 22.1217 4.30739 22.2344 4.6875 22.2344C5.19721 22.2344 5.68605 22.0319 6.04647 21.6715C6.40689 21.311 6.60938 20.8222 6.60938 20.3125C6.60938 19.9324 6.49666 19.5608 6.28548 19.2448C6.0743 18.9287 5.77415 18.6824 5.42297 18.5369C5.07179 18.3915 4.68537 18.3534 4.31256 18.4276C3.93975 18.5017 3.59731 18.6848 3.32853 18.9535C3.05975 19.2223 2.87671 19.5648 2.80255 19.9376C2.7284 20.3104 2.76646 20.6968 2.91192 21.048C3.05738 21.3991 3.30371 21.6993 3.61976 21.9105Z" stroke="white" stroke-width="1.5"/>
</g>
<defs>
<clipPath id="clip0_177_197">
<rect width="25" height="25" fill="white"/>
</clipPath>
</defs>
</svg>
