<svg width="29" height="25" viewBox="0 0 29 25" fill="none" xmlns="http://www.w3.org/2000/svg">
<path d="M4.46429 6.10714H25.7366C26.9266 6.10714 27.8214 7.01225 27.8214 8.03571V22.3214C27.8214 23.3449 26.9266 24.25 25.7366 24.25H3.57143C2.01299 24.25 0.75 22.987 0.75 21.4286V3.57143C0.75 2.01299 2.01299 0.75 3.57143 0.75H24.1071C25.1723 0.75 26.0357 1.61343 26.0357 2.67857C26.0357 2.75766 25.9719 2.82143 25.8929 2.82143H4.46429C3.55677 2.82143 2.82143 3.55677 2.82143 4.46429C2.82143 5.3718 3.55677 6.10714 4.46429 6.10714ZM20.6786 15.1786C20.6786 16.5788 21.814 17.7143 23.2143 17.7143C24.6145 17.7143 25.75 16.5788 25.75 15.1786C25.75 13.7783 24.6145 12.6429 23.2143 12.6429C21.814 12.6429 20.6786 13.7783 20.6786 15.1786Z" stroke="white" stroke-width="1.5"/>
</svg>
