<svg width="33" height="25" viewBox="0 0 33 25" fill="none" xmlns="http://www.w3.org/2000/svg">
<path d="M19.5018 24.0893V24.087V18.7493C19.5018 18.3136 19.3287 17.8957 19.0206 17.5876C18.7125 17.2794 18.2946 17.1063 17.8589 17.1063H14.287C13.8513 17.1063 13.4334 17.2794 13.1253 17.5876C12.8172 17.8957 12.6441 18.3136 12.6441 18.7493V24.0909C12.6441 24.1287 12.6291 24.1649 12.6025 24.1917C12.5759 24.2184 12.5398 24.2336 12.5021 24.2338C12.502 24.2338 12.5019 24.2338 12.5018 24.2338L6.25153 24.25C6.25132 24.25 6.2511 24.25 6.25089 24.25C6.21321 24.2498 6.17711 24.2348 6.15045 24.2081C6.12364 24.1813 6.10858 24.145 6.10858 24.107V15.3143L16.0752 7.10564L26.0395 15.3083V24.107C26.0395 24.145 26.0245 24.1813 25.9977 24.2081C25.971 24.2348 25.935 24.2498 25.8973 24.25C25.8971 24.25 25.8968 24.25 25.8966 24.25L19.6468 24.2327H19.6448C19.626 24.2327 19.6073 24.229 19.59 24.2218C19.5726 24.2146 19.5568 24.204 19.5435 24.1907C19.5302 24.1773 19.5197 24.1615 19.5126 24.1441C19.5054 24.1267 19.5017 24.1081 19.5018 24.0893ZM31.3662 12.7764L30.0463 14.381L16.9789 3.61853L16.979 3.6185L16.9728 3.61353C16.7185 3.40857 16.4018 3.29681 16.0752 3.29681C15.7486 3.29681 15.4318 3.40858 15.1776 3.61353L15.1775 3.6135L15.1714 3.61854L2.10513 14.3806L0.782693 12.773L14.8467 1.19024C14.8468 1.1902 14.8469 1.19016 14.8469 1.19011C15.1921 0.906082 15.6253 0.750789 16.0724 0.750789C16.5195 0.750789 16.9528 0.906129 17.298 1.19024L17.2981 1.19029L22.2947 5.30124L23.5212 6.31034V4.72207V0.75H26.486V8.39993V8.75367L26.759 8.97867L31.3662 12.7764ZM2.156 14.4425C2.15606 14.4425 2.15611 14.4426 2.15617 14.4427L2.15612 14.4426L2.156 14.4425Z" stroke="white" stroke-width="1.5"/>
</svg>
