<svg width="31" height="23" viewBox="0 0 31 23" fill="none" xmlns="http://www.w3.org/2000/svg">
<path d="M18.3152 1.43853C18.3152 0.726008 19.2429 0.294744 19.8193 0.851089C19.8195 0.851315 19.8198 0.851541 19.82 0.851767L30.1501 10.909C30.1505 10.9093 30.1508 10.9096 30.1511 10.9099C30.483 11.2375 30.483 11.7612 30.1511 12.0888C30.1508 12.0891 30.1505 12.0894 30.1501 12.0898L19.8186 22.1483C19.2477 22.7041 18.3152 22.2777 18.3152 21.5602V15.8111V15.2111H17.7152H9.34967C8.8477 15.2111 8.47341 14.824 8.47341 14.3739V8.62484C8.47341 8.17477 8.8477 7.78758 9.34967 7.78758H17.7152H18.3152V7.18758V1.43853ZM11.2101 19.8834V22.2788C11.2101 22.3277 11.1618 22.3975 11.072 22.3975H5.90506C2.9611 22.3975 0.6 20.0759 0.6 17.2484V5.75032C0.6 2.92278 2.9611 0.601274 5.90506 0.601274H11.072C11.1618 0.601274 11.2101 0.671071 11.2101 0.719904V3.11534C11.2101 3.16417 11.1618 3.23397 11.072 3.23397H5.90506C4.50018 3.23397 3.3367 4.34392 3.3367 5.75032V17.2484C3.3367 18.6548 4.50018 19.7648 5.90506 19.7648H11.072C11.1618 19.7648 11.2101 19.8346 11.2101 19.8834Z" stroke="#292D32" stroke-width="1.2"/>
</svg>
