<svg width="31" height="28" viewBox="0 0 31 28" fill="none" xmlns="http://www.w3.org/2000/svg">
<rect x="22" y="15" width="2" height="10" rx="1" fill="black"/>
<rect x="28" y="19" width="2" height="10" rx="1" transform="rotate(90 28 19)" fill="black"/>
<circle cx="23" cy="20" r="7.5" stroke="black"/>
<path fill-rule="evenodd" clip-rule="evenodd" d="M7.10594 16.2128L10.8449 19.9517L11.7641 20.871L12.6834 19.9517L15.5461 17.089C15.2564 17.8304 15.074 18.6255 15.0182 19.4553L12.6834 21.7902L11.7641 22.7094L10.8449 21.7902L6.61779 17.5631C4.07332 17.9365 2.12664 20.1117 2.12664 22.746V23.2147C2.12664 23.7907 2.59442 24.2585 3.17039 24.2585H16.2264C16.5214 24.7268 16.8636 25.1623 17.2464 25.5585H3.17039C1.87645 25.5585 0.826645 24.5087 0.826645 23.2147V22.746C0.826645 19.2206 3.61473 16.3641 7.10594 16.2128ZM22.0327 4.45496L18.6234 5.2763L17.3306 5.58777C17.5267 5.97563 17.6875 6.38433 17.8037 6.81096C17.9392 7.30812 18.0141 7.82965 18.0141 8.37097C18.0141 11.8231 15.2163 14.621 11.7641 14.621C8.312 14.621 5.51414 11.8231 5.51414 8.37097C5.51414 7.82981 5.59047 7.30843 5.72638 6.81141C5.84309 6.38461 6.00374 5.97577 6.19774 5.58777L4.90586 5.27654L4.27508 5.12458L3.10321 4.84227L2.97508 4.8114V6.14859V7.37976C3.01955 7.40644 3.06237 7.43569 3.10321 7.46732C3.37627 7.67883 3.56102 7.99719 3.56102 8.37097C3.56102 8.73734 3.38181 9.04917 3.11735 9.26121C3.08574 9.28655 3.05291 9.31047 3.01903 9.33289L3.05921 9.49337L3.78075 12.3749C3.86375 12.7118 3.67821 13.0585 3.40965 13.0585H1.36864C1.10008 13.0585 0.914536 12.7118 0.997543 12.3749L1.71908 9.49337L1.75926 9.33289C1.72538 9.31047 1.69255 9.28655 1.66094 9.26121C1.39648 9.04917 1.21727 8.73734 1.21727 8.37097C1.21727 7.99719 1.40202 7.67883 1.67508 7.46732C1.71592 7.43569 1.75874 7.40644 1.80321 7.37976V4.8114V4.5282L1.67508 4.49817L1.49071 4.45496C0.606918 4.24011 0.606918 3.12683 1.49071 2.91199L10.7973 0.670776C11.4321 0.519409 12.1011 0.519409 12.7358 0.670776L22.0327 2.91687C22.9214 3.13171 22.9214 4.24011 22.0327 4.45496ZM6.50221 4.32393L3.84171 3.68299L11.0989 1.93532L11.1002 1.93501C11.5358 1.83136 11.997 1.83133 12.4326 1.93492L12.4343 1.93532L19.6773 3.68521L17.0261 4.32393L15.4291 4.70867L16.1705 6.17454C16.5148 6.85525 16.7141 7.59305 16.7141 8.37097C16.7141 11.1051 14.4983 13.321 11.7641 13.321C9.02997 13.321 6.81415 11.1051 6.81415 8.37097C6.81415 7.5969 7.0164 6.85734 7.36049 6.16915L8.09165 4.70684L6.50221 4.32393Z" fill="black"/>
</svg>
