<svg width="20" height="22" viewBox="0 0 20 22" fill="none" xmlns="http://www.w3.org/2000/svg">
<path d="M9.43431 18.4407L10 19.0063L10.5657 18.4407L14.4051 14.6013C16.8935 14.8782 18.825 16.9725 18.825 19.525V19.9375C18.825 20.6343 18.2593 21.2 17.5625 21.2H2.4375C1.74066 21.2 1.175 20.6343 1.175 19.9375V19.525C1.175 16.9725 3.10647 14.8782 5.59493 14.6013L9.43431 18.4407ZM2.45299 2.96481L2.03437 2.86396V2.85916L1.56279 2.74863L9.33478 0.876984C9.33505 0.876922 9.33531 0.87686 9.33557 0.876798C9.77157 0.77296 10.2324 0.772936 10.6684 0.876726C10.6688 0.876812 10.6691 0.876898 10.6695 0.876984L18.4304 2.75198L14.7111 3.64801L13.7283 3.88478L14.1846 4.78685C14.5089 5.42798 14.7 6.13009 14.7 6.87498C14.7 9.47104 12.5961 11.575 10 11.575C7.40394 11.575 5.3 9.47104 5.3 6.87498C5.3 6.13246 5.49423 5.42927 5.8171 4.78353L6.26705 3.88365L5.28893 3.64801L2.45299 2.96481ZM1.64597 6.6887L1.75 6.62629L1.85403 6.6887C1.90252 6.7178 1.93571 6.75283 1.95507 6.78428C1.97283 6.8131 1.98125 6.84178 1.98125 6.87498C1.98125 6.90523 1.97391 6.93155 1.9579 6.95878C1.94038 6.98857 1.90965 7.02332 1.86291 7.05425L1.75 7.12894L1.63709 7.05425C1.59035 7.02332 1.55962 6.98857 1.5421 6.95878C1.52609 6.93155 1.51875 6.90523 1.51875 6.87498C1.51875 6.84178 1.52717 6.8131 1.54493 6.78428C1.56429 6.75283 1.59748 6.7178 1.64597 6.6887ZM1.39978 10.2L1.75 8.80134L2.10022 10.2H1.39978Z" stroke="#292D32" stroke-width="1.6"/>
</svg>
