<svg width="74" height="28" viewBox="0 0 74 28" fill="none" xmlns="http://www.w3.org/2000/svg">
<path d="M5.688 14.126C4.764 14.126 3.936 13.976 3.204 13.676C2.472 13.376 1.884 12.932 1.44 12.344C1.008 11.756 0.78 11.048 0.756 10.22H4.032C4.08 10.688 4.242 11.048 4.518 11.3C4.794 11.54 5.154 11.66 5.598 11.66C6.054 11.66 6.414 11.558 6.678 11.354C6.942 11.138 7.074 10.844 7.074 10.472C7.074 10.16 6.966 9.902 6.75 9.698C6.546 9.494 6.288 9.326 5.976 9.194C5.676 9.062 5.244 8.912 4.68 8.744C3.864 8.492 3.198 8.24 2.682 7.988C2.166 7.736 1.722 7.364 1.35 6.872C0.978 6.38 0.792 5.738 0.792 4.946C0.792 3.77 1.218 2.852 2.07 2.192C2.922 1.52 4.032 1.184 5.4 1.184C6.792 1.184 7.914 1.52 8.766 2.192C9.618 2.852 10.074 3.776 10.134 4.964H6.804C6.78 4.556 6.63 4.238 6.354 4.01C6.078 3.77 5.724 3.65 5.292 3.65C4.92 3.65 4.62 3.752 4.392 3.956C4.164 4.148 4.05 4.43 4.05 4.802C4.05 5.21 4.242 5.528 4.626 5.756C5.01 5.984 5.61 6.23 6.426 6.494C7.242 6.77 7.902 7.034 8.406 7.286C8.922 7.538 9.366 7.904 9.738 8.384C10.11 8.864 10.296 9.482 10.296 10.238C10.296 10.958 10.11 11.612 9.738 12.2C9.378 12.788 8.85 13.256 8.154 13.604C7.458 13.952 6.636 14.126 5.688 14.126ZM17.7882 11.39V14H16.2222C15.1062 14 14.2362 13.73 13.6122 13.19C12.9882 12.638 12.6762 11.744 12.6762 10.508V6.512H11.4522V3.956H12.6762V1.508H15.7542V3.956H17.7702V6.512H15.7542V10.544C15.7542 10.844 15.8262 11.06 15.9702 11.192C16.1142 11.324 16.3542 11.39 16.6902 11.39H17.7882ZM29.4207 3.956V14H26.3427V12.632C26.0307 13.076 25.6047 13.436 25.0647 13.712C24.5367 13.976 23.9487 14.108 23.3007 14.108C22.5327 14.108 21.8547 13.94 21.2667 13.604C20.6787 13.256 20.2227 12.758 19.8987 12.11C19.5747 11.462 19.4127 10.7 19.4127 9.824V3.956H22.4727V9.41C22.4727 10.082 22.6467 10.604 22.9947 10.976C23.3427 11.348 23.8107 11.534 24.3987 11.534C24.9987 11.534 25.4727 11.348 25.8207 10.976C26.1687 10.604 26.3427 10.082 26.3427 9.41V3.956H29.4207ZM31.0196 8.96C31.0196 7.928 31.2116 7.022 31.5956 6.242C31.9916 5.462 32.5256 4.862 33.1976 4.442C33.8696 4.022 34.6196 3.812 35.4476 3.812C36.1076 3.812 36.7076 3.95 37.2476 4.226C37.7996 4.502 38.2316 4.874 38.5436 5.342V0.68H41.6216V14H38.5436V12.56C38.2556 13.04 37.8416 13.424 37.3016 13.712C36.7736 14 36.1556 14.144 35.4476 14.144C34.6196 14.144 33.8696 13.934 33.1976 13.514C32.5256 13.082 31.9916 12.476 31.5956 11.696C31.2116 10.904 31.0196 9.992 31.0196 8.96ZM38.5436 8.978C38.5436 8.21 38.3276 7.604 37.8956 7.16C37.4756 6.716 36.9596 6.494 36.3476 6.494C35.7356 6.494 35.2136 6.716 34.7816 7.16C34.3616 7.592 34.1516 8.192 34.1516 8.96C34.1516 9.728 34.3616 10.34 34.7816 10.796C35.2136 11.24 35.7356 11.462 36.3476 11.462C36.9596 11.462 37.4756 11.24 37.8956 10.796C38.3276 10.352 38.5436 9.746 38.5436 8.978ZM53.3164 8.816C53.3164 9.104 53.2984 9.404 53.2624 9.716H46.2964C46.3444 10.34 46.5424 10.82 46.8904 11.156C47.2504 11.48 47.6884 11.642 48.2044 11.642C48.9724 11.642 49.5064 11.318 49.8064 10.67H53.0824C52.9144 11.33 52.6084 11.924 52.1644 12.452C51.7324 12.98 51.1864 13.394 50.5264 13.694C49.8664 13.994 49.1284 14.144 48.3124 14.144C47.3284 14.144 46.4524 13.934 45.6844 13.514C44.9164 13.094 44.3164 12.494 43.8844 11.714C43.4524 10.934 43.2364 10.022 43.2364 8.978C43.2364 7.934 43.4464 7.022 43.8664 6.242C44.2984 5.462 44.8984 4.862 45.6664 4.442C46.4344 4.022 47.3164 3.812 48.3124 3.812C49.2844 3.812 50.1484 4.016 50.9044 4.424C51.6604 4.832 52.2484 5.414 52.6684 6.17C53.1004 6.926 53.3164 7.808 53.3164 8.816ZM50.1664 8.006C50.1664 7.478 49.9864 7.058 49.6264 6.746C49.2664 6.434 48.8164 6.278 48.2764 6.278C47.7604 6.278 47.3224 6.428 46.9624 6.728C46.6144 7.028 46.3984 7.454 46.3144 8.006H50.1664ZM61.0602 3.848C62.2362 3.848 63.1722 4.232 63.8682 5C64.5762 5.756 64.9302 6.8 64.9302 8.132V14H61.8702V8.546C61.8702 7.874 61.6962 7.352 61.3482 6.98C61.0002 6.608 60.5322 6.422 59.9442 6.422C59.3562 6.422 58.8882 6.608 58.5402 6.98C58.1922 7.352 58.0182 7.874 58.0182 8.546V14H54.9402V3.956H58.0182V5.288C58.3302 4.844 58.7502 4.496 59.2782 4.244C59.8062 3.98 60.4002 3.848 61.0602 3.848ZM72.6671 11.39V14H71.1011C69.9851 14 69.1151 13.73 68.4911 13.19C67.8671 12.638 67.5551 11.744 67.5551 10.508V6.512H66.3311V3.956H67.5551V1.508H70.6331V3.956H72.6491V6.512H70.6331V10.544C70.6331 10.844 70.7051 11.06 70.8491 11.192C70.9931 11.324 71.2331 11.39 71.5691 11.39H72.6671Z" fill="white"/>
<path d="M23.4553 21.024C23.4553 21.744 23.2193 22.324 22.7473 22.764C22.2753 23.204 21.5673 23.424 20.6233 23.424H18.9313V27H18.0913V18.612H20.6233C21.5593 18.612 22.2633 18.832 22.7353 19.272C23.2153 19.712 23.4553 20.296 23.4553 21.024ZM20.6233 22.704C21.9353 22.704 22.5913 22.144 22.5913 21.024C22.5913 20.464 22.4353 20.04 22.1233 19.752C21.8113 19.464 21.3113 19.32 20.6233 19.32H18.9313V22.704H20.6233ZM29.2927 27.096C28.6767 27.096 28.1207 26.96 27.6247 26.688C27.1367 26.408 26.7487 26.016 26.4607 25.512C26.1807 25 26.0407 24.404 26.0407 23.724C26.0407 23.044 26.1847 22.452 26.4727 21.948C26.7607 21.436 27.1527 21.044 27.6487 20.772C28.1447 20.492 28.7007 20.352 29.3167 20.352C29.9327 20.352 30.4887 20.492 30.9847 20.772C31.4887 21.044 31.8807 21.436 32.1607 21.948C32.4487 22.452 32.5927 23.044 32.5927 23.724C32.5927 24.396 32.4487 24.988 32.1607 25.5C31.8727 26.012 31.4767 26.408 30.9727 26.688C30.4687 26.96 29.9087 27.096 29.2927 27.096ZM29.2927 26.364C29.7247 26.364 30.1247 26.268 30.4927 26.076C30.8607 25.876 31.1567 25.58 31.3807 25.188C31.6127 24.788 31.7287 24.3 31.7287 23.724C31.7287 23.148 31.6167 22.664 31.3927 22.272C31.1687 21.872 30.8727 21.576 30.5047 21.384C30.1367 21.184 29.7367 21.084 29.3047 21.084C28.8727 21.084 28.4727 21.184 28.1047 21.384C27.7367 21.576 27.4407 21.872 27.2167 22.272C27.0007 22.664 26.8927 23.148 26.8927 23.724C26.8927 24.3 27.0007 24.788 27.2167 25.188C27.4407 25.58 27.7327 25.876 28.0927 26.076C28.4607 26.268 28.8607 26.364 29.2927 26.364ZM36.5239 21.612C36.7079 21.204 36.9879 20.888 37.3639 20.664C37.7479 20.44 38.2159 20.328 38.7679 20.328V21.204H38.5399C37.9319 21.204 37.4439 21.368 37.0759 21.696C36.7079 22.024 36.5239 22.572 36.5239 23.34V27H35.6839V20.448H36.5239V21.612ZM42.6836 21.156V25.224C42.6836 25.624 42.7596 25.9 42.9116 26.052C43.0636 26.204 43.3316 26.28 43.7156 26.28H44.4836V27H43.5836C42.9916 27 42.5516 26.864 42.2636 26.592C41.9756 26.312 41.8316 25.856 41.8316 25.224V21.156H40.9196V20.448H41.8316V18.804H42.6836V20.448H44.4836V21.156H42.6836ZM47.0449 23.712C47.0449 23.04 47.1769 22.452 47.4409 21.948C47.7129 21.436 48.0849 21.044 48.5569 20.772C49.0369 20.492 49.5769 20.352 50.1769 20.352C50.8009 20.352 51.3369 20.496 51.7849 20.784C52.2409 21.072 52.5689 21.44 52.7689 21.888V20.448H53.6089V27H52.7689V25.548C52.5609 25.996 52.2289 26.368 51.7729 26.664C51.3249 26.952 50.7889 27.096 50.1649 27.096C49.5729 27.096 49.0369 26.956 48.5569 26.676C48.0849 26.396 47.7129 26 47.4409 25.488C47.1769 24.976 47.0449 24.384 47.0449 23.712ZM52.7689 23.724C52.7689 23.196 52.6609 22.732 52.4449 22.332C52.2289 21.932 51.9329 21.624 51.5569 21.408C51.1889 21.192 50.7809 21.084 50.3329 21.084C49.8689 21.084 49.4529 21.188 49.0849 21.396C48.7169 21.604 48.4249 21.908 48.2089 22.308C48.0009 22.7 47.8969 23.168 47.8969 23.712C47.8969 24.248 48.0009 24.72 48.2089 25.128C48.4249 25.528 48.7169 25.836 49.0849 26.052C49.4529 26.26 49.8689 26.364 50.3329 26.364C50.7809 26.364 51.1889 26.256 51.5569 26.04C51.9329 25.824 52.2289 25.516 52.4449 25.116C52.6609 24.716 52.7689 24.252 52.7689 23.724ZM57.9266 18.12V27H57.0866V18.12H57.9266Z" fill="white"/>
<line opacity="0.5" x1="60" y1="22.5" x2="73" y2="22.5" stroke="white"/>
<line opacity="0.5" x1="3" y1="22.5" x2="16" y2="22.5" stroke="white"/>
</svg>
