<svg width="147" height="71" viewBox="0 0 147 71" fill="none" xmlns="http://www.w3.org/2000/svg">
<path d="M11.6104 33.252C9.76238 33.252 8.10638 32.952 6.64238 32.352C5.17838 31.752 4.00238 30.864 3.11438 29.688C2.25038 28.512 1.79438 27.096 1.74638 25.44H8.29838C8.39438 26.376 8.71838 27.096 9.27038 27.6C9.82238 28.08 10.5424 28.32 11.4304 28.32C12.3424 28.32 13.0624 28.116 13.5904 27.708C14.1184 27.276 14.3824 26.688 14.3824 25.944C14.3824 25.32 14.1664 24.804 13.7344 24.396C13.3264 23.988 12.8104 23.652 12.1864 23.388C11.5864 23.124 10.7224 22.824 9.59438 22.488C7.96238 21.984 6.63038 21.48 5.59838 20.976C4.56638 20.472 3.67838 19.728 2.93438 18.744C2.19038 17.76 1.81838 16.476 1.81838 14.892C1.81838 12.54 2.67038 10.704 4.37438 9.384C6.07838 8.04 8.29838 7.368 11.0344 7.368C13.8184 7.368 16.0624 8.04 17.7664 9.384C19.4704 10.704 20.3824 12.552 20.5024 14.928H13.8424C13.7944 14.112 13.4944 13.476 12.9424 13.02C12.3904 12.54 11.6824 12.3 10.8184 12.3C10.0744 12.3 9.47438 12.504 9.01838 12.912C8.56238 13.296 8.33438 13.86 8.33438 14.604C8.33438 15.42 8.71838 16.056 9.48637 16.512C10.2544 16.968 11.4544 17.46 13.0864 17.988C14.7184 18.54 16.0384 19.068 17.0464 19.572C18.0784 20.076 18.9664 20.808 19.7104 21.768C20.4544 22.728 20.8264 23.964 20.8264 25.476C20.8264 26.916 20.4544 28.224 19.7104 29.4C18.9904 30.576 17.9344 31.512 16.5424 32.208C15.1504 32.904 13.5064 33.252 11.6104 33.252ZM35.8108 27.78V33H32.6788C30.4468 33 28.7068 32.46 27.4588 31.38C26.2108 30.276 25.5868 28.488 25.5868 26.016V18.024H23.1388V12.912H25.5868V8.016H31.7428V12.912H35.7748V18.024H31.7428V26.088C31.7428 26.688 31.8868 27.12 32.1748 27.384C32.4628 27.648 32.9428 27.78 33.6148 27.78H35.8108ZM59.0758 12.912V33H52.9198V30.264C52.2958 31.152 51.4438 31.872 50.3638 32.424C49.3078 32.952 48.1318 33.216 46.8358 33.216C45.2998 33.216 43.9438 32.88 42.7678 32.208C41.5918 31.512 40.6798 30.516 40.0318 29.22C39.3838 27.924 39.0598 26.4 39.0598 24.648V12.912H45.1798V23.82C45.1798 25.164 45.5278 26.208 46.2238 26.952C46.9198 27.696 47.8558 28.068 49.0318 28.068C50.2318 28.068 51.1798 27.696 51.8758 26.952C52.5718 26.208 52.9198 25.164 52.9198 23.82V12.912H59.0758ZM62.2736 22.92C62.2736 20.856 62.6576 19.044 63.4256 17.484C64.2176 15.924 65.2856 14.724 66.6296 13.884C67.9736 13.044 69.4736 12.624 71.1296 12.624C72.4496 12.624 73.6496 12.9 74.7296 13.452C75.8336 14.004 76.6976 14.748 77.3216 15.684V6.36H83.4776V33H77.3216V30.12C76.7456 31.08 75.9176 31.848 74.8376 32.424C73.7816 33 72.5456 33.288 71.1296 33.288C69.4736 33.288 67.9736 32.868 66.6296 32.028C65.2856 31.164 64.2176 29.952 63.4256 28.392C62.6576 26.808 62.2736 24.984 62.2736 22.92ZM77.3216 22.956C77.3216 21.42 76.8896 20.208 76.0256 19.32C75.1856 18.432 74.1536 17.988 72.9296 17.988C71.7056 17.988 70.6616 18.432 69.7976 19.32C68.9576 20.184 68.5376 21.384 68.5376 22.92C68.5376 24.456 68.9576 25.68 69.7976 26.592C70.6616 27.48 71.7056 27.924 72.9296 27.924C74.1536 27.924 75.1856 27.48 76.0256 26.592C76.8896 25.704 77.3216 24.492 77.3216 22.956ZM106.867 22.632C106.867 23.208 106.831 23.808 106.759 24.432H92.8272C92.9232 25.68 93.3192 26.64 94.0152 27.312C94.7352 27.96 95.6112 28.284 96.6432 28.284C98.1792 28.284 99.2472 27.636 99.8472 26.34H106.399C106.063 27.66 105.451 28.848 104.563 29.904C103.699 30.96 102.607 31.788 101.287 32.388C99.9672 32.988 98.4912 33.288 96.8592 33.288C94.8912 33.288 93.1392 32.868 91.6032 32.028C90.0672 31.188 88.8672 29.988 88.0032 28.428C87.1392 26.868 86.7072 25.044 86.7072 22.956C86.7072 20.868 87.1272 19.044 87.9672 17.484C88.8312 15.924 90.0312 14.724 91.5672 13.884C93.1032 13.044 94.8672 12.624 96.8592 12.624C98.8032 12.624 100.531 13.032 102.043 13.848C103.555 14.664 104.731 15.828 105.571 17.34C106.435 18.852 106.867 20.616 106.867 22.632ZM100.567 21.012C100.567 19.956 100.207 19.116 99.4872 18.492C98.7672 17.868 97.8672 17.556 96.7872 17.556C95.7552 17.556 94.8792 17.856 94.1592 18.456C93.4632 19.056 93.0312 19.908 92.8632 21.012H100.567ZM122.355 12.696C124.707 12.696 126.579 13.464 127.971 15C129.387 16.512 130.095 18.6 130.095 21.264V33H123.975V22.092C123.975 20.748 123.627 19.704 122.931 18.96C122.235 18.216 121.299 17.844 120.123 17.844C118.947 17.844 118.011 18.216 117.315 18.96C116.619 19.704 116.271 20.748 116.271 22.092V33H110.115V12.912H116.271V15.576C116.895 14.688 117.735 13.992 118.791 13.488C119.847 12.96 121.035 12.696 122.355 12.696ZM145.569 27.78V33H142.437C140.205 33 138.465 32.46 137.217 31.38C135.969 30.276 135.345 28.488 135.345 26.016V18.024H132.897V12.912H135.345V8.016H141.501V12.912H145.533V18.024H141.501V26.088C141.501 26.688 141.645 27.12 141.933 27.384C142.221 27.648 142.701 27.78 143.373 27.78H145.569Z" fill="#353689"/>
<path d="M48.5467 47.542C48.5467 48.802 48.1337 49.817 47.3077 50.587C46.4817 51.357 45.2427 51.742 43.5907 51.742H40.6297V58H39.1597V43.321H43.5907C45.2287 43.321 46.4607 43.706 47.2867 44.476C48.1267 45.246 48.5467 46.268 48.5467 47.542ZM43.5907 50.482C45.8867 50.482 47.0347 49.502 47.0347 47.542C47.0347 46.562 46.7617 45.82 46.2157 45.316C45.6697 44.812 44.7947 44.56 43.5907 44.56H40.6297V50.482H43.5907ZM58.7622 58.168C57.6842 58.168 56.7112 57.93 55.8432 57.454C54.9892 56.964 54.3102 56.278 53.8062 55.396C53.3162 54.5 53.0712 53.457 53.0712 52.267C53.0712 51.077 53.3232 50.041 53.8272 49.159C54.3312 48.263 55.0172 47.577 55.8852 47.101C56.7532 46.611 57.7262 46.366 58.8042 46.366C59.8822 46.366 60.8552 46.611 61.7232 47.101C62.6052 47.577 63.2912 48.263 63.7812 49.159C64.2852 50.041 64.5372 51.077 64.5372 52.267C64.5372 53.443 64.2852 54.479 63.7812 55.375C63.2772 56.271 62.5842 56.964 61.7022 57.454C60.8202 57.93 59.8402 58.168 58.7622 58.168ZM58.7622 56.887C59.5182 56.887 60.2182 56.719 60.8622 56.383C61.5062 56.033 62.0242 55.515 62.4162 54.829C62.8222 54.129 63.0252 53.275 63.0252 52.267C63.0252 51.259 62.8292 50.412 62.4372 49.726C62.0452 49.026 61.5272 48.508 60.8832 48.172C60.2392 47.822 59.5392 47.647 58.7832 47.647C58.0272 47.647 57.3272 47.822 56.6832 48.172C56.0392 48.508 55.5212 49.026 55.1292 49.726C54.7512 50.412 54.5622 51.259 54.5622 52.267C54.5622 53.275 54.7512 54.129 55.1292 54.829C55.5212 55.515 56.0322 56.033 56.6622 56.383C57.3062 56.719 58.0062 56.887 58.7622 56.887ZM71.4168 48.571C71.7388 47.857 72.2288 47.304 72.8868 46.912C73.5588 46.52 74.3778 46.324 75.3438 46.324V47.857H74.9448C73.8808 47.857 73.0268 48.144 72.3828 48.718C71.7388 49.292 71.4168 50.251 71.4168 51.595V58H69.9468V46.534H71.4168V48.571ZM82.1962 47.773V54.892C82.1962 55.592 82.3292 56.075 82.5952 56.341C82.8612 56.607 83.3302 56.74 84.0022 56.74H85.3462V58H83.7712C82.7352 58 81.9652 57.762 81.4612 57.286C80.9572 56.796 80.7052 55.998 80.7052 54.892V47.773H79.1092V46.534H80.7052V43.657H82.1962V46.534H85.3462V47.773H82.1962ZM89.8286 52.246C89.8286 51.07 90.0596 50.041 90.5216 49.159C90.9976 48.263 91.6486 47.577 92.4746 47.101C93.3146 46.611 94.2596 46.366 95.3096 46.366C96.4016 46.366 97.3396 46.618 98.1236 47.122C98.9216 47.626 99.4956 48.27 99.8456 49.054V46.534H101.316V58H99.8456V55.459C99.4816 56.243 98.9006 56.894 98.1026 57.412C97.3186 57.916 96.3806 58.168 95.2886 58.168C94.2526 58.168 93.3146 57.923 92.4746 57.433C91.6486 56.943 90.9976 56.25 90.5216 55.354C90.0596 54.458 89.8286 53.422 89.8286 52.246ZM99.8456 52.267C99.8456 51.343 99.6566 50.531 99.2786 49.831C98.9006 49.131 98.3826 48.592 97.7246 48.214C97.0806 47.836 96.3666 47.647 95.5826 47.647C94.7706 47.647 94.0426 47.829 93.3986 48.193C92.7546 48.557 92.2436 49.089 91.8656 49.789C91.5016 50.475 91.3196 51.294 91.3196 52.246C91.3196 53.184 91.5016 54.01 91.8656 54.724C92.2436 55.424 92.7546 55.963 93.3986 56.341C94.0426 56.705 94.7706 56.887 95.5826 56.887C96.3666 56.887 97.0806 56.698 97.7246 56.32C98.3826 55.942 98.9006 55.403 99.2786 54.703C99.6566 54.003 99.8456 53.191 99.8456 52.267ZM108.871 42.46V58H107.401V42.46H108.871Z" fill="#353689"/>
<line opacity="0.2" x1="126" y1="52.5" x2="147" y2="52.5" stroke="black"/>
<line opacity="0.2" x1="4.37114e-08" y1="52.5" x2="21" y2="52.5" stroke="black"/>
</svg>
