<svg width="172" height="127" viewBox="0 0 172 127" fill="none" xmlns="http://www.w3.org/2000/svg">
<path d="M172 7C172 73.2742 118.274 127 52 127C-14.2742 127 -68 73.2742 -68 7C-68 -59.2742 -14.2742 -113 52 -113C118.274 -113 172 -59.2742 172 7Z" fill="#F96E07"/>
<g clip-path="url(#clip0_80_119)">
<path d="M89.375 30.375C89.375 23.5404 83.8346 18 77 18C70.1654 18 64.625 23.5404 64.625 30.375C64.625 37.2096 70.1654 42.75 77 42.75C83.8346 42.75 89.375 37.2096 89.375 30.375ZM74.1112 49.0793C66.4632 44.3974 54.0753 43.1109 47.8414 42.7564C45.7467 42.6378 44 44.2337 44 46.2485V74.9688C44 76.816 45.494 78.3565 47.4147 78.4557C53.0428 78.7509 64.4291 79.8325 72.2988 83.7963C73.5066 84.4048 74.9388 83.5759 74.9388 82.2662V50.5566C74.9375 49.9546 74.6397 49.4028 74.1112 49.0793ZM106.159 42.7564C99.926 43.1096 87.5368 44.3974 79.8901 49.0793C79.3616 49.4028 79.0638 49.9765 79.0638 50.5785V82.2623C79.0638 83.5759 80.4998 84.406 81.7115 83.7963C89.58 79.8363 100.96 78.7548 106.587 78.4596C108.507 78.3591 110.001 76.8186 110.001 74.9714V46.2485C110 44.2337 108.253 42.6378 106.159 42.7564V42.7564Z" fill="white"/>
</g>
<defs>
<clipPath id="clip0_80_119">
<rect width="66" height="66" fill="white" transform="translate(44 18)"/>
</clipPath>
</defs>
</svg>
